<?xml version="1.0" standalone="no"?>
<!DOCTYPE svg PUBLIC "-//W3C//DTD SVG 20010904//EN"
 "http://www.w3.org/TR/2001/REC-SVG-20010904/DTD/svg10.dtd">
<svg version="1.0" xmlns="http://www.w3.org/2000/svg"
 width="300.000000pt" height="300.000000pt" viewBox="0 0 300.000000 300.000000"
 preserveAspectRatio="xMidYMid meet">
<metadata>
Created by potrace 1.13, written by Peter Selinger 2001-2015
</metadata>
<g transform="translate(0.000000,300.000000) scale(0.100000,-0.100000)"
fill="#000000" stroke="none">
<path d="M527 2336 c-75 -25 -140 -79 -183 -152 -36 -62 -64 -184 -64 -283 1
-288 139 -463 365 -465 176 -2 294 84 356 259 26 74 37 261 20 350 -45 243
-261 371 -494 291z m240 -97 c53 -26 97 -81 125 -156 28 -77 31 -261 5 -344
-48 -160 -177 -240 -318 -198 -94 29 -162 134 -178 276 -22 206 37 371 153
424 58 26 157 25 213 -2z"/>
<path d="M580 2088 c-35 -18 -51 -35 -72 -77 -24 -47 -28 -67 -28 -141 0 -74
4 -94 28 -141 34 -68 83 -99 160 -99 29 0 67 6 85 14 123 51 159 303 59 410
-56 60 -152 74 -232 34z m181 -66 c74 -82 59 -272 -25 -323 -45 -28 -98 -25
-137 8 -43 37 -59 80 -59 163 0 84 16 126 61 164 29 25 39 28 83 23 40 -3 55
-11 77 -35z"/>
<path d="M1082 2076 c2 -16 10 -21 31 -21 50 0 57 -23 57 -185 0 -162 -7 -185
-57 -185 -21 0 -29 -5 -31 -21 -3 -20 1 -21 113 -21 111 1 116 2 113 21 -2 16
-10 21 -35 21 -18 1 -35 4 -38 7 -4 4 -8 37 -8 75 l-2 68 90 6 c63 4 99 11
118 24 57 37 73 113 37 172 -32 53 -49 58 -228 59 -160 1 -163 1 -160 -20z
m315 -42 c43 -27 42 -101 0 -129 -13 -8 -50 -18 -83 -21 -78 -8 -94 6 -94 80
0 29 6 60 13 68 22 30 120 31 164 2z"/>
<path d="M1513 2083 c-8 -21 8 -35 34 -30 47 9 53 -11 53 -181 0 -86 -4 -164
-10 -172 -5 -8 -24 -14 -42 -15 -26 0 -33 -4 -33 -20 0 -19 7 -20 195 -20
l195 0 3 93 c3 92 2 93 -20 90 -20 -3 -23 -9 -26 -60 -2 -32 -9 -61 -17 -68
-8 -7 -45 -10 -97 -8 l-83 3 -3 83 -3 83 43 -3 c43 -3 43 -3 48 -48 4 -36 9
-45 25 -45 18 0 19 8 20 120 0 113 -1 120 -20 120 -16 0 -21 -8 -25 -45 -5
-45 -5 -45 -47 -48 -47 -3 -48 -3 -43 73 3 57 13 65 87 65 90 0 101 -8 109
-81 6 -52 9 -60 27 -57 17 3 19 11 21 86 0 46 -3 87 -9 92 -17 14 -377 7 -382
-7z"/>
<path d="M1972 2078 c2 -17 10 -23 29 -23 55 0 59 -13 59 -182 0 -176 -6 -196
-53 -191 -26 2 -33 -1 -35 -18 -3 -21 0 -22 110 -20 106 1 113 2 113 21 0 16
-6 20 -29 18 -54 -4 -56 4 -55 186 l1 166 90 -185 c49 -102 97 -193 105 -202
21 -24 60 -23 73 1 6 11 10 91 10 188 0 92 3 178 6 190 4 16 15 23 38 25 23 2
31 8 31 23 0 19 -7 20 -105 20 -98 0 -105 -1 -105 -20 0 -16 7 -20 33 -21 19
-1 38 -7 43 -15 11 -18 12 -336 1 -323 -5 5 -46 88 -92 184 -46 96 -88 181
-93 188 -6 8 -38 12 -94 12 -82 0 -84 -1 -81 -22z"/>
<path d="M345 1209 c-77 -18 -115 -78 -115 -181 1 -136 100 -212 215 -164 61
26 105 136 55 136 -13 0 -24 -10 -31 -27 -17 -47 -49 -73 -87 -73 -102 0 -137
172 -51 245 37 30 68 32 103 4 l26 -21 -21 -17 c-18 -15 -20 -21 -10 -39 13
-24 50 -29 69 -10 19 19 14 82 -8 111 -17 22 -79 50 -100 46 -3 -1 -23 -5 -45
-10z"/>
<path d="M665 1205 c-22 -8 -48 -24 -57 -36 -35 -42 -14 -94 34 -87 19 2 23 9
23 36 0 36 17 52 55 52 39 0 70 -27 70 -60 0 -16 -4 -31 -9 -34 -5 -3 -44 -13
-88 -21 -91 -17 -123 -43 -123 -101 0 -48 15 -73 55 -90 46 -19 94 -18 136 4
35 18 37 18 59 0 43 -35 106 -14 116 37 9 52 2 80 -23 83 -19 3 -22 -2 -25
-40 -2 -30 -8 -44 -19 -46 -14 -3 -17 14 -21 120 -3 68 -9 131 -13 140 -18 44
-105 66 -170 43z m115 -261 c-25 -45 -105 -59 -140 -24 -24 24 -25 32 -2 59
11 15 36 25 76 31 32 5 61 12 65 16 12 12 12 -60 1 -82z"/>
<path d="M1126 1209 c-15 -4 -37 -16 -47 -25 -17 -16 -19 -16 -19 -1 0 14 -11
17 -60 17 -53 0 -60 -2 -60 -20 0 -16 7 -20 34 -20 l34 0 7 -66 c4 -36 4 -94
-1 -127 -9 -59 -11 -62 -37 -63 -33 -1 -41 -8 -34 -29 5 -12 25 -15 97 -15 83
0 90 1 90 20 0 11 -6 21 -12 21 -7 1 -20 2 -28 3 -12 1 -16 20 -18 91 -2 50 0
100 3 112 14 58 93 83 131 42 14 -16 20 -40 23 -100 4 -107 -4 -153 -29 -146
-25 6 -44 -8 -37 -27 5 -13 23 -16 92 -16 84 0 86 1 83 23 -2 16 -10 22 -28
22 l-25 0 0 113 c0 108 1 115 24 133 33 27 77 24 107 -6 24 -24 25 -29 22
-132 l-3 -108 -29 -5 c-17 -3 -29 -8 -28 -12 1 -5 2 -12 2 -18 0 -6 37 -10 90
-10 83 0 90 1 90 20 0 11 -6 20 -12 21 -7 1 -22 2 -33 3 -18 1 -20 10 -25 121
-3 66 -9 128 -14 138 -23 50 -134 67 -186 28 -30 -21 -30 -21 -57 -2 -35 24
-70 31 -107 20z"/>
<path d="M1763 1210 c-18 -4 -40 -14 -50 -21 -13 -11 -17 -11 -20 -1 -3 8 -25
12 -64 12 -52 0 -59 -2 -59 -20 0 -16 7 -20 35 -20 l35 0 -2 -187 -3 -188 -30
0 c-23 0 -30 -4 -30 -20 0 -18 7 -20 93 -22 91 -2 93 -1 90 20 -2 14 -10 22
-23 22 -33 0 -45 14 -45 56 0 21 2 39 3 39 2 0 19 -7 36 -16 22 -11 48 -15 78
-11 90 10 135 73 135 187 0 127 -72 194 -179 170z m87 -67 c52 -47 54 -153 4
-213 -34 -40 -93 -42 -129 -5 -22 21 -25 33 -25 97 1 79 14 113 51 134 37 20
66 17 99 -13z"/>
<path d="M2504 1204 c-22 -8 -40 -14 -41 -14 -1 0 -9 -13 -18 -30 -21 -40 -19
-86 4 -109 21 -21 80 -41 122 -41 29 0 79 -34 79 -54 0 -26 -46 -56 -84 -56
-57 0 -92 23 -103 67 -5 23 -15 38 -23 38 -12 0 -16 -17 -18 -77 -3 -77 -3
-78 22 -78 13 0 26 5 28 11 2 7 12 7 31 0 63 -24 149 -5 181 40 50 73 -13 159
-117 159 -18 0 -43 7 -55 16 -46 32 -13 94 51 94 33 0 77 -40 77 -70 0 -13 7
-20 20 -20 18 0 20 7 20 70 0 63 -2 70 -20 70 -11 0 -20 -5 -20 -11 0 -6 -8
-8 -18 -5 -39 13 -82 12 -118 0z"/>
<path d="M1970 1180 c0 -15 7 -20 29 -20 17 0 31 -6 35 -16 3 -9 6 -62 6 -120
0 -100 1 -105 29 -136 27 -31 34 -33 94 -33 48 0 70 5 85 18 17 16 20 16 26 2
4 -12 18 -15 58 -13 45 3 53 6 53 23 0 13 -7 20 -20 20 -42 1 -45 10 -45 156
l0 139 -55 0 c-48 0 -55 -2 -55 -20 0 -15 7 -20 25 -20 32 0 39 -27 33 -132
-4 -73 -8 -84 -32 -105 -33 -28 -85 -30 -117 -4 -23 18 -24 27 -28 150 l-3
131 -59 0 c-52 0 -59 -2 -59 -20z"/>
</g>
</svg>
